<mxfile host="app.diagrams.net" agent="Mozilla/5.0 (Macintosh; Intel Mac OS X 10_15_7) AppleWebKit/537.36 (KHTML, like Gecko) Chrome/133.0.0.0 Safari/537.36" version="26.0.16">
  <diagram name="第 1 页" id="Q6NWQ0842un5MImSxIBP">
    <mxGraphModel dx="1242" dy="700" grid="1" gridSize="10" guides="1" tooltips="1" connect="1" arrows="1" fold="1" page="1" pageScale="1" pageWidth="827" pageHeight="1169" math="0" shadow="0">
      <root>
        <mxCell id="0" />
        <mxCell id="1" parent="0" />
        <mxCell id="WO9n8ISheRc9SLPrD6gf-4" style="edgeStyle=orthogonalEdgeStyle;rounded=0;orthogonalLoop=1;jettySize=auto;html=1;exitX=0.5;exitY=1;exitDx=0;exitDy=0;" edge="1" parent="1" source="WO9n8ISheRc9SLPrD6gf-1" target="WO9n8ISheRc9SLPrD6gf-5">
          <mxGeometry relative="1" as="geometry">
            <mxPoint x="173" y="130" as="targetPoint" />
          </mxGeometry>
        </mxCell>
        <mxCell id="WO9n8ISheRc9SLPrD6gf-1" value="&lt;div style=&quot;font-family: Menlo, Monaco, &amp;quot;Courier New&amp;quot;, monospace; font-weight: normal; font-size: 14px; line-height: 21px; white-space: pre;&quot;&gt;&lt;div style=&quot;&quot;&gt;&lt;span style=&quot;background-color: rgb(255, 255, 255);&quot;&gt;&lt;font style=&quot;color: rgb(0, 0, 0);&quot;&gt;&lt;span&gt;Vue&lt;/span&gt;&lt;span&gt;.&lt;/span&gt;&lt;span&gt;prototype&lt;/span&gt;&lt;span&gt;.&lt;/span&gt;&lt;span&gt;_init&lt;/span&gt;&lt;/font&gt;&lt;/span&gt;&lt;/div&gt;&lt;/div&gt;" style="whiteSpace=wrap;html=1;" vertex="1" parent="1">
          <mxGeometry x="85" y="20" width="176" height="60" as="geometry" />
        </mxCell>
        <mxCell id="WO9n8ISheRc9SLPrD6gf-16" style="edgeStyle=orthogonalEdgeStyle;rounded=0;orthogonalLoop=1;jettySize=auto;html=1;exitX=0.5;exitY=1;exitDx=0;exitDy=0;entryX=0.5;entryY=0;entryDx=0;entryDy=0;" edge="1" parent="1" source="WO9n8ISheRc9SLPrD6gf-5" target="WO9n8ISheRc9SLPrD6gf-7">
          <mxGeometry relative="1" as="geometry" />
        </mxCell>
        <mxCell id="WO9n8ISheRc9SLPrD6gf-47" style="edgeStyle=orthogonalEdgeStyle;rounded=0;orthogonalLoop=1;jettySize=auto;html=1;exitX=1;exitY=0.5;exitDx=0;exitDy=0;" edge="1" parent="1" source="WO9n8ISheRc9SLPrD6gf-5" target="WO9n8ISheRc9SLPrD6gf-43">
          <mxGeometry relative="1" as="geometry" />
        </mxCell>
        <mxCell id="WO9n8ISheRc9SLPrD6gf-5" value="&lt;pre style=&quot;font-family: var(--ds-font-family-code); overflow: auto; padding: calc(var(--ds-md-zoom)*8px)calc(var(--ds-md-zoom)*12px); text-wrap-mode: wrap; word-break: break-all; font-size: 12.573px; text-align: start; margin-top: 0px !important; margin-bottom: 0px !important;&quot;&gt;&lt;font style=&quot;color: rgb(0, 0, 0);&quot;&gt; 1、合并配置（mergeOptions） → 生成 vm.$options&lt;br&gt;&lt;/font&gt;&lt;/pre&gt;" style="rounded=0;whiteSpace=wrap;html=1;" vertex="1" parent="1">
          <mxGeometry x="83" y="110" width="180" height="60" as="geometry" />
        </mxCell>
        <mxCell id="WO9n8ISheRc9SLPrD6gf-17" style="edgeStyle=orthogonalEdgeStyle;rounded=0;orthogonalLoop=1;jettySize=auto;html=1;exitX=0.5;exitY=1;exitDx=0;exitDy=0;entryX=0.5;entryY=0;entryDx=0;entryDy=0;" edge="1" parent="1" source="WO9n8ISheRc9SLPrD6gf-7" target="WO9n8ISheRc9SLPrD6gf-8">
          <mxGeometry relative="1" as="geometry" />
        </mxCell>
        <mxCell id="WO9n8ISheRc9SLPrD6gf-48" style="edgeStyle=orthogonalEdgeStyle;rounded=0;orthogonalLoop=1;jettySize=auto;html=1;exitX=1;exitY=0.5;exitDx=0;exitDy=0;" edge="1" parent="1" source="WO9n8ISheRc9SLPrD6gf-7" target="WO9n8ISheRc9SLPrD6gf-46">
          <mxGeometry relative="1" as="geometry" />
        </mxCell>
        <mxCell id="WO9n8ISheRc9SLPrD6gf-7" value="&lt;pre style=&quot;font-family: var(--ds-font-family-code); overflow: auto; padding: calc(var(--ds-md-zoom)*8px)calc(var(--ds-md-zoom)*12px); text-wrap-mode: wrap; word-break: break-all; font-size: 12.573px; text-align: start; margin-top: 0px !important; margin-bottom: 0px !important;&quot;&gt;&lt;font style=&quot;color: rgb(0, 0, 0);&quot;&gt;&lt;div style=&quot;font-family: Menlo, Monaco, &amp;quot;Courier New&amp;quot;, monospace; font-size: 14px; line-height: 21px; text-wrap-mode: nowrap;&quot;&gt;&lt;span style=&quot;background-color: rgb(255, 255, 255);&quot;&gt;2、initLifecycle&lt;/span&gt;&lt;/div&gt;&lt;/font&gt;&lt;/pre&gt;" style="rounded=0;whiteSpace=wrap;html=1;" vertex="1" parent="1">
          <mxGeometry x="83" y="200" width="180" height="60" as="geometry" />
        </mxCell>
        <mxCell id="WO9n8ISheRc9SLPrD6gf-18" style="edgeStyle=orthogonalEdgeStyle;rounded=0;orthogonalLoop=1;jettySize=auto;html=1;exitX=0.5;exitY=1;exitDx=0;exitDy=0;entryX=0.5;entryY=0;entryDx=0;entryDy=0;" edge="1" parent="1" source="WO9n8ISheRc9SLPrD6gf-8" target="WO9n8ISheRc9SLPrD6gf-10">
          <mxGeometry relative="1" as="geometry" />
        </mxCell>
        <mxCell id="WO9n8ISheRc9SLPrD6gf-8" value="&lt;pre style=&quot;font-family: var(--ds-font-family-code); overflow: auto; padding: calc(var(--ds-md-zoom)*8px)calc(var(--ds-md-zoom)*12px); text-wrap-mode: wrap; word-break: break-all; font-size: 12.573px; text-align: start; margin-top: 0px !important; margin-bottom: 0px !important;&quot;&gt;&lt;font style=&quot;color: rgb(0, 0, 0);&quot;&gt;&lt;div style=&quot;font-family: Menlo, Monaco, &amp;quot;Courier New&amp;quot;, monospace; font-size: 14px; line-height: 21px; text-wrap-mode: nowrap;&quot;&gt;&lt;div style=&quot;line-height: 21px;&quot;&gt;&lt;span style=&quot;background-color: rgb(255, 255, 255);&quot;&gt;3、initEvents&lt;/span&gt;&lt;/div&gt;&lt;/div&gt;&lt;/font&gt;&lt;/pre&gt;" style="rounded=0;whiteSpace=wrap;html=1;" vertex="1" parent="1">
          <mxGeometry x="83" y="290" width="180" height="60" as="geometry" />
        </mxCell>
        <mxCell id="WO9n8ISheRc9SLPrD6gf-22" value="" style="edgeStyle=orthogonalEdgeStyle;rounded=0;orthogonalLoop=1;jettySize=auto;html=1;" edge="1" parent="1" source="WO9n8ISheRc9SLPrD6gf-9" target="WO9n8ISheRc9SLPrD6gf-13">
          <mxGeometry relative="1" as="geometry" />
        </mxCell>
        <mxCell id="WO9n8ISheRc9SLPrD6gf-9" value="&lt;pre style=&quot;font-family: var(--ds-font-family-code); overflow: auto; padding: calc(var(--ds-md-zoom)*8px)calc(var(--ds-md-zoom)*12px); text-wrap-mode: wrap; word-break: break-all; font-size: 12.573px; text-align: start; margin-top: 0px !important; margin-bottom: 0px !important;&quot;&gt;&lt;font style=&quot;color: rgb(0, 0, 0);&quot;&gt;&lt;div style=&quot;font-family: Menlo, Monaco, &amp;quot;Courier New&amp;quot;, monospace; font-size: 14px; line-height: 21px; text-wrap-mode: nowrap;&quot;&gt;&lt;div style=&quot;line-height: 21px; background-color: rgb(255, 255, 255);&quot;&gt;&lt;span&gt;5、callHook &lt;/span&gt;&lt;span style=&quot;white-space-collapse: collapse;&quot;&gt;beforeCreate&lt;/span&gt;&lt;/div&gt;&lt;/div&gt;&lt;/font&gt;&lt;/pre&gt;" style="rounded=0;whiteSpace=wrap;html=1;" vertex="1" parent="1">
          <mxGeometry x="58" y="480" width="230" height="60" as="geometry" />
        </mxCell>
        <mxCell id="WO9n8ISheRc9SLPrD6gf-21" style="edgeStyle=orthogonalEdgeStyle;rounded=0;orthogonalLoop=1;jettySize=auto;html=1;exitX=0.5;exitY=1;exitDx=0;exitDy=0;" edge="1" parent="1" source="WO9n8ISheRc9SLPrD6gf-10" target="WO9n8ISheRc9SLPrD6gf-9">
          <mxGeometry relative="1" as="geometry" />
        </mxCell>
        <mxCell id="WO9n8ISheRc9SLPrD6gf-51" style="edgeStyle=orthogonalEdgeStyle;rounded=0;orthogonalLoop=1;jettySize=auto;html=1;exitX=1;exitY=0.5;exitDx=0;exitDy=0;" edge="1" parent="1" source="WO9n8ISheRc9SLPrD6gf-10" target="WO9n8ISheRc9SLPrD6gf-50">
          <mxGeometry relative="1" as="geometry" />
        </mxCell>
        <mxCell id="WO9n8ISheRc9SLPrD6gf-10" value="&lt;pre style=&quot;font-family: var(--ds-font-family-code); overflow: auto; padding: calc(var(--ds-md-zoom)*8px)calc(var(--ds-md-zoom)*12px); text-wrap-mode: wrap; word-break: break-all; font-size: 12.573px; text-align: start; margin-top: 0px !important; margin-bottom: 0px !important;&quot;&gt;&lt;font style=&quot;color: rgb(0, 0, 0);&quot;&gt;&lt;div style=&quot;font-family: Menlo, Monaco, &amp;quot;Courier New&amp;quot;, monospace; font-size: 14px; line-height: 21px; text-wrap-mode: nowrap;&quot;&gt;&lt;div style=&quot;line-height: 21px;&quot;&gt;&lt;span style=&quot;background-color: rgb(255, 255, 255);&quot;&gt;4、initRender&lt;/span&gt;&lt;/div&gt;&lt;/div&gt;&lt;/font&gt;&lt;/pre&gt;" style="rounded=0;whiteSpace=wrap;html=1;" vertex="1" parent="1">
          <mxGeometry x="83" y="380" width="180" height="60" as="geometry" />
        </mxCell>
        <mxCell id="WO9n8ISheRc9SLPrD6gf-26" style="edgeStyle=orthogonalEdgeStyle;rounded=0;orthogonalLoop=1;jettySize=auto;html=1;exitX=0.5;exitY=1;exitDx=0;exitDy=0;entryX=0.5;entryY=0;entryDx=0;entryDy=0;" edge="1" parent="1" source="WO9n8ISheRc9SLPrD6gf-11" target="WO9n8ISheRc9SLPrD6gf-15">
          <mxGeometry relative="1" as="geometry" />
        </mxCell>
        <mxCell id="WO9n8ISheRc9SLPrD6gf-61" style="edgeStyle=orthogonalEdgeStyle;rounded=0;orthogonalLoop=1;jettySize=auto;html=1;exitX=1;exitY=0.5;exitDx=0;exitDy=0;" edge="1" parent="1" source="WO9n8ISheRc9SLPrD6gf-11" target="WO9n8ISheRc9SLPrD6gf-60">
          <mxGeometry relative="1" as="geometry" />
        </mxCell>
        <mxCell id="WO9n8ISheRc9SLPrD6gf-11" value="&lt;pre style=&quot;font-family: var(--ds-font-family-code); overflow: auto; padding: calc(var(--ds-md-zoom)*8px)calc(var(--ds-md-zoom)*12px); text-wrap-mode: wrap; word-break: break-all; font-size: 12.573px; text-align: start; margin-top: 0px !important; margin-bottom: 0px !important;&quot;&gt;&lt;font style=&quot;color: rgb(0, 0, 0);&quot;&gt;&lt;div style=&quot;font-family: Menlo, Monaco, &amp;quot;Courier New&amp;quot;, monospace; font-size: 14px; line-height: 21px; text-wrap-mode: nowrap;&quot;&gt;&lt;div style=&quot;line-height: 21px; background-color: rgb(255, 255, 255);&quot;&gt;&lt;span&gt;9、callHook &lt;/span&gt;&lt;span style=&quot;white-space-collapse: collapse;&quot;&gt;created&lt;/span&gt;&lt;/div&gt;&lt;/div&gt;&lt;/font&gt;&lt;/pre&gt;" style="rounded=0;whiteSpace=wrap;html=1;" vertex="1" parent="1">
          <mxGeometry x="85" y="860" width="180" height="60" as="geometry" />
        </mxCell>
        <mxCell id="WO9n8ISheRc9SLPrD6gf-25" style="edgeStyle=orthogonalEdgeStyle;rounded=0;orthogonalLoop=1;jettySize=auto;html=1;exitX=0.5;exitY=1;exitDx=0;exitDy=0;entryX=0.5;entryY=0;entryDx=0;entryDy=0;" edge="1" parent="1" source="WO9n8ISheRc9SLPrD6gf-12" target="WO9n8ISheRc9SLPrD6gf-11">
          <mxGeometry relative="1" as="geometry" />
        </mxCell>
        <mxCell id="WO9n8ISheRc9SLPrD6gf-12" value="&lt;pre style=&quot;font-family: var(--ds-font-family-code); overflow: auto; padding: calc(var(--ds-md-zoom)*8px)calc(var(--ds-md-zoom)*12px); text-wrap-mode: wrap; word-break: break-all; font-size: 12.573px; text-align: start; margin-top: 0px !important; margin-bottom: 0px !important;&quot;&gt;&lt;font style=&quot;color: rgb(0, 0, 0);&quot;&gt;&lt;div style=&quot;font-family: Menlo, Monaco, &amp;quot;Courier New&amp;quot;, monospace; font-size: 14px; line-height: 21px; text-wrap-mode: nowrap;&quot;&gt;&lt;div style=&quot;line-height: 21px;&quot;&gt;&lt;span style=&quot;background-color: rgb(255, 255, 255);&quot;&gt;8、initProvide&lt;/span&gt;&lt;/div&gt;&lt;/div&gt;&lt;/font&gt;&lt;/pre&gt;" style="rounded=0;whiteSpace=wrap;html=1;" vertex="1" parent="1">
          <mxGeometry x="83" y="770" width="180" height="60" as="geometry" />
        </mxCell>
        <mxCell id="WO9n8ISheRc9SLPrD6gf-23" style="edgeStyle=orthogonalEdgeStyle;rounded=0;orthogonalLoop=1;jettySize=auto;html=1;exitX=0.5;exitY=1;exitDx=0;exitDy=0;entryX=0.5;entryY=0;entryDx=0;entryDy=0;" edge="1" parent="1" source="WO9n8ISheRc9SLPrD6gf-13" target="WO9n8ISheRc9SLPrD6gf-14">
          <mxGeometry relative="1" as="geometry" />
        </mxCell>
        <mxCell id="WO9n8ISheRc9SLPrD6gf-13" value="&lt;pre style=&quot;font-family: var(--ds-font-family-code); overflow: auto; padding: calc(var(--ds-md-zoom)*8px)calc(var(--ds-md-zoom)*12px); text-wrap-mode: wrap; word-break: break-all; font-size: 12.573px; text-align: start; margin-top: 0px !important; margin-bottom: 0px !important;&quot;&gt;&lt;font style=&quot;color: rgb(0, 0, 0);&quot;&gt;&lt;div style=&quot;font-family: Menlo, Monaco, &amp;quot;Courier New&amp;quot;, monospace; font-size: 14px; line-height: 21px; text-wrap-mode: nowrap;&quot;&gt;&lt;div style=&quot;line-height: 21px;&quot;&gt;&lt;span style=&quot;background-color: rgb(255, 255, 255);&quot;&gt;6、initInjections&lt;/span&gt;&lt;/div&gt;&lt;/div&gt;&lt;/font&gt;&lt;/pre&gt;" style="rounded=0;whiteSpace=wrap;html=1;" vertex="1" parent="1">
          <mxGeometry x="83" y="570" width="180" height="50" as="geometry" />
        </mxCell>
        <mxCell id="WO9n8ISheRc9SLPrD6gf-24" style="edgeStyle=orthogonalEdgeStyle;rounded=0;orthogonalLoop=1;jettySize=auto;html=1;exitX=0.5;exitY=1;exitDx=0;exitDy=0;entryX=0.5;entryY=0;entryDx=0;entryDy=0;" edge="1" parent="1" source="WO9n8ISheRc9SLPrD6gf-14" target="WO9n8ISheRc9SLPrD6gf-12">
          <mxGeometry relative="1" as="geometry" />
        </mxCell>
        <mxCell id="WO9n8ISheRc9SLPrD6gf-57" style="edgeStyle=orthogonalEdgeStyle;rounded=0;orthogonalLoop=1;jettySize=auto;html=1;exitX=1;exitY=0.5;exitDx=0;exitDy=0;" edge="1" parent="1" source="WO9n8ISheRc9SLPrD6gf-14" target="WO9n8ISheRc9SLPrD6gf-56">
          <mxGeometry relative="1" as="geometry" />
        </mxCell>
        <mxCell id="WO9n8ISheRc9SLPrD6gf-14" value="&lt;pre style=&quot;font-family: var(--ds-font-family-code); overflow: auto; padding: calc(var(--ds-md-zoom)*8px)calc(var(--ds-md-zoom)*12px); text-wrap-mode: wrap; word-break: break-all; font-size: 12.573px; text-align: start; margin-top: 0px !important; margin-bottom: 0px !important;&quot;&gt;&lt;font style=&quot;color: rgb(0, 0, 0);&quot;&gt;&lt;div style=&quot;font-family: Menlo, Monaco, &amp;quot;Courier New&amp;quot;, monospace; font-size: 14px; line-height: 21px; text-wrap-mode: nowrap;&quot;&gt;&lt;div style=&quot;line-height: 21px;&quot;&gt;&lt;span style=&quot;background-color: rgb(255, 255, 255);&quot;&gt;7、initState&lt;/span&gt;&lt;/div&gt;&lt;/div&gt;&lt;/font&gt;&lt;/pre&gt;" style="rounded=0;whiteSpace=wrap;html=1;" vertex="1" parent="1">
          <mxGeometry x="83" y="670" width="180" height="60" as="geometry" />
        </mxCell>
        <mxCell id="WO9n8ISheRc9SLPrD6gf-15" value="&lt;pre style=&quot;font-family: var(--ds-font-family-code); overflow: auto; padding: calc(var(--ds-md-zoom)*8px)calc(var(--ds-md-zoom)*12px); word-break: break-all; text-align: start; margin-top: 0px !important; margin-bottom: 0px !important;&quot;&gt;&lt;font style=&quot;color: rgb(0, 0, 0);&quot;&gt;&lt;div style=&quot;font-family: Menlo, Monaco, &amp;quot;Courier New&amp;quot;, monospace; line-height: 21px;&quot;&gt;&lt;div style=&quot;line-height: 21px; background-color: rgb(255, 255, 255);&quot;&gt;&lt;span style=&quot;font-size: 14px; text-wrap-mode: nowrap;&quot;&gt;10、根据el选项判断&lt;/span&gt;&lt;span style=&quot;font-size: 12.573px; white-space: normal;&quot;&gt;&lt;font&gt;如何挂载&lt;/font&gt;&lt;/span&gt;&lt;/div&gt;&lt;/div&gt;&lt;/font&gt;&lt;/pre&gt;" style="rounded=0;whiteSpace=wrap;html=1;" vertex="1" parent="1">
          <mxGeometry x="72" y="960" width="206" height="60" as="geometry" />
        </mxCell>
        <mxCell id="WO9n8ISheRc9SLPrD6gf-38" style="edgeStyle=orthogonalEdgeStyle;rounded=0;orthogonalLoop=1;jettySize=auto;html=1;exitX=1;exitY=0.5;exitDx=0;exitDy=0;entryX=0;entryY=0.5;entryDx=0;entryDy=0;entryPerimeter=0;" edge="1" parent="1" source="WO9n8ISheRc9SLPrD6gf-8">
          <mxGeometry relative="1" as="geometry">
            <mxPoint x="320" y="320" as="targetPoint" />
          </mxGeometry>
        </mxCell>
        <mxCell id="WO9n8ISheRc9SLPrD6gf-43" value="&lt;div&gt;&lt;ul class=&quot;ul1&quot;&gt;&lt;li class=&quot;li1&quot; style=&quot;margin: 0px; font-variant-numeric: normal; font-variant-east-asian: normal; font-variant-alternates: normal; font-size-adjust: none; font-kerning: auto; font-optical-sizing: auto; font-feature-settings: normal; font-variation-settings: normal; font-variant-position: normal; font-variant-emoji: normal; font-stretch: normal; line-height: normal; font-family: &amp;quot;Helvetica Neue&amp;quot;;&quot;&gt;&lt;p style=&quot;margin: 0px; font-variant-numeric: normal; font-variant-east-asian: normal; font-variant-alternates: normal; font-size-adjust: none; font-kerning: auto; font-optical-sizing: auto; font-feature-settings: normal; font-variation-settings: normal; font-variant-position: normal; font-variant-emoji: normal; font-stretch: normal; line-height: normal;&quot; class=&quot;p1&quot;&gt;1.&amp;nbsp;&lt;b&gt;合并配置&lt;/b&gt;&lt;/p&gt;&lt;ul style=&quot;list-style-type: disc;&quot; class=&quot;ul1&quot;&gt;&lt;li style=&quot;margin: 0px; font-variant-numeric: normal; font-variant-east-asian: normal; font-variant-alternates: normal; font-size-adjust: none; font-kerning: auto; font-optical-sizing: auto; font-feature-settings: normal; font-variation-settings: normal; font-variant-position: normal; font-variant-emoji: normal; font-stretch: normal; line-height: normal;&quot; class=&quot;li1&quot;&gt;&lt;span style=&quot;font-variant-numeric: normal; font-variant-east-asian: normal; font-variant-alternates: normal; font-size-adjust: none; font-kerning: auto; font-optical-sizing: auto; font-feature-settings: normal; font-variation-settings: normal; font-variant-position: normal; font-variant-emoji: normal; font-stretch: normal; line-height: normal; font-family: Menlo;&quot; class=&quot;s1&quot;&gt;&lt;/span&gt;将用户传入的&amp;nbsp;options&amp;nbsp;与 Vue 的默认配置（如全局组件、指令、过滤器等）合并，生成最终的&amp;nbsp;vm.$options。&lt;/li&gt;&lt;li style=&quot;margin: 0px; font-variant-numeric: normal; font-variant-east-asian: normal; font-variant-alternates: normal; font-size-adjust: none; font-kerning: auto; font-optical-sizing: auto; font-feature-settings: normal; font-variation-settings: normal; font-variant-position: normal; font-variant-emoji: normal; font-stretch: normal; line-height: normal;&quot; class=&quot;li1&quot;&gt;&lt;span style=&quot;font-variant-numeric: normal; font-variant-east-asian: normal; font-variant-alternates: normal; font-size-adjust: none; font-kerning: auto; font-optical-sizing: auto; font-feature-settings: normal; font-variation-settings: normal; font-variant-position: normal; font-variant-emoji: normal; font-stretch: normal; line-height: normal; font-family: Menlo;&quot; class=&quot;s1&quot;&gt;&lt;/span&gt;&lt;span style=&quot;font-variant-numeric: normal; font-variant-east-asian: normal; font-variant-alternates: normal; font-size-adjust: none; font-kerning: auto; font-optical-sizing: auto; font-feature-settings: normal; font-variation-settings: normal; font-variant-position: normal; font-variant-emoji: normal; font-stretch: normal; line-height: normal; font-family: &amp;quot;PingFang SC&amp;quot;;&quot; class=&quot;s2&quot;&gt;处理&lt;/span&gt;&amp;nbsp;Vue.mixin&lt;span style=&quot;font-variant-numeric: normal; font-variant-east-asian: normal; font-variant-alternates: normal; font-size-adjust: none; font-kerning: auto; font-optical-sizing: auto; font-feature-settings: normal; font-variation-settings: normal; font-variant-position: normal; font-variant-emoji: normal; font-stretch: normal; line-height: normal; font-family: &amp;quot;PingFang SC&amp;quot;;&quot; class=&quot;s2&quot;&gt;、&lt;/span&gt;Vue.extend&amp;nbsp;&lt;span style=&quot;font-variant-numeric: normal; font-variant-east-asian: normal; font-variant-alternates: normal; font-size-adjust: none; font-kerning: auto; font-optical-sizing: auto; font-feature-settings: normal; font-variation-settings: normal; font-variant-position: normal; font-variant-emoji: normal; font-stretch: normal; line-height: normal; font-family: &amp;quot;PingFang SC&amp;quot;;&quot; class=&quot;s2&quot;&gt;或组件继承等场景的配置合并。&lt;/span&gt;&lt;/li&gt;&lt;/ul&gt;&lt;/li&gt;&lt;/ul&gt;&lt;/div&gt;" style="shape=note;whiteSpace=wrap;html=1;backgroundOutline=1;darkOpacity=0.05;align=left;spacing=-2;fontSize=11;spacingTop=-2;spacingBottom=-1;spacingLeft=-19;" vertex="1" parent="1">
          <mxGeometry x="321.5" y="105" width="513" height="70" as="geometry" />
        </mxCell>
        <mxCell id="WO9n8ISheRc9SLPrD6gf-46" value="&lt;ul class=&quot;ul1&quot;&gt;&lt;li class=&quot;li1&quot; style=&quot;margin: 0px; font-variant-numeric: normal; font-variant-east-asian: normal; font-variant-alternates: normal; font-size-adjust: none; font-kerning: auto; font-optical-sizing: auto; font-feature-settings: normal; font-variation-settings: normal; font-variant-position: normal; font-variant-emoji: normal; font-stretch: normal; line-height: normal; font-family: &amp;quot;Helvetica Neue&amp;quot;;&quot;&gt;&lt;p style=&quot;margin: 0px; font-variant-numeric: normal; font-variant-east-asian: normal; font-variant-alternates: normal; font-size-adjust: none; font-kerning: auto; font-optical-sizing: auto; font-feature-settings: normal; font-variation-settings: normal; font-variant-position: normal; font-variant-emoji: normal; font-stretch: normal; line-height: normal;&quot; class=&quot;p1&quot;&gt;2.&amp;nbsp;&lt;b&gt;初始化生命周期相关属性&lt;/b&gt;&lt;/p&gt;&lt;ul style=&quot;list-style-type: disc;&quot; class=&quot;ul1&quot;&gt;&lt;li style=&quot;margin: 0px; font-variant-numeric: normal; font-variant-east-asian: normal; font-variant-alternates: normal; font-size-adjust: none; font-kerning: auto; font-optical-sizing: auto; font-feature-settings: normal; font-variation-settings: normal; font-variant-position: normal; font-variant-emoji: normal; font-stretch: normal; line-height: normal;&quot; class=&quot;li1&quot;&gt;&lt;span style=&quot;font-variant-numeric: normal; font-variant-east-asian: normal; font-variant-alternates: normal; font-size-adjust: none; font-kerning: auto; font-optical-sizing: auto; font-feature-settings: normal; font-variation-settings: normal; font-variant-position: normal; font-variant-emoji: normal; font-stretch: normal; line-height: normal; font-family: Menlo;&quot; class=&quot;s1&quot;&gt;&lt;/span&gt;定义&amp;nbsp;_isVue&amp;nbsp;标识（避免被响应式处理）。&lt;/li&gt;&lt;li style=&quot;margin: 0px; font-variant-numeric: normal; font-variant-east-asian: normal; font-variant-alternates: normal; font-size-adjust: none; font-kerning: auto; font-optical-sizing: auto; font-feature-settings: normal; font-variation-settings: normal; font-variant-position: normal; font-variant-emoji: normal; font-stretch: normal; line-height: normal;&quot; class=&quot;li1&quot;&gt;&lt;span style=&quot;font-variant-numeric: normal; font-variant-east-asian: normal; font-variant-alternates: normal; font-size-adjust: none; font-kerning: auto; font-optical-sizing: auto; font-feature-settings: normal; font-variation-settings: normal; font-variant-position: normal; font-variant-emoji: normal; font-stretch: normal; line-height: normal; font-family: Menlo;&quot; class=&quot;s1&quot;&gt;&lt;/span&gt;初始化实例关系属性：$parent、$root、$children（根实例的&amp;nbsp;$root&amp;nbsp;指向自身）。&lt;/li&gt;&lt;li style=&quot;margin: 0px; font-variant-numeric: normal; font-variant-east-asian: normal; font-variant-alternates: normal; font-size-adjust: none; font-kerning: auto; font-optical-sizing: auto; font-feature-settings: normal; font-variation-settings: normal; font-variant-position: normal; font-variant-emoji: normal; font-stretch: normal; line-height: normal;&quot; class=&quot;li1&quot;&gt;&lt;span style=&quot;font-variant-numeric: normal; font-variant-east-asian: normal; font-variant-alternates: normal; font-size-adjust: none; font-kerning: auto; font-optical-sizing: auto; font-feature-settings: normal; font-variation-settings: normal; font-variant-position: normal; font-variant-emoji: normal; font-stretch: normal; line-height: normal; font-family: Menlo;&quot; class=&quot;s1&quot;&gt;&lt;/span&gt;&lt;span style=&quot;font-variant-numeric: normal; font-variant-east-asian: normal; font-variant-alternates: normal; font-size-adjust: none; font-kerning: auto; font-optical-sizing: auto; font-feature-settings: normal; font-variation-settings: normal; font-variant-position: normal; font-variant-emoji: normal; font-stretch: normal; line-height: normal; font-family: &amp;quot;PingFang SC&amp;quot;;&quot; class=&quot;s2&quot;&gt;设置生命周期状态标志，如&lt;/span&gt;&amp;nbsp;_isMounted&lt;span style=&quot;font-variant-numeric: normal; font-variant-east-asian: normal; font-variant-alternates: normal; font-size-adjust: none; font-kerning: auto; font-optical-sizing: auto; font-feature-settings: normal; font-variation-settings: normal; font-variant-position: normal; font-variant-emoji: normal; font-stretch: normal; line-height: normal; font-family: &amp;quot;PingFang SC&amp;quot;;&quot; class=&quot;s2&quot;&gt;、&lt;/span&gt;_isDestroyed&amp;nbsp;&lt;span style=&quot;font-variant-numeric: normal; font-variant-east-asian: normal; font-variant-alternates: normal; font-size-adjust: none; font-kerning: auto; font-optical-sizing: auto; font-feature-settings: normal; font-variation-settings: normal; font-variant-position: normal; font-variant-emoji: normal; font-stretch: normal; line-height: normal; font-family: &amp;quot;PingFang SC&amp;quot;;&quot; class=&quot;s2&quot;&gt;等（初始值为&lt;/span&gt;&amp;nbsp;false&lt;span style=&quot;font-variant-numeric: normal; font-variant-east-asian: normal; font-variant-alternates: normal; font-size-adjust: none; font-kerning: auto; font-optical-sizing: auto; font-feature-settings: normal; font-variation-settings: normal; font-variant-position: normal; font-variant-emoji: normal; font-stretch: normal; line-height: normal; font-family: &amp;quot;PingFang SC&amp;quot;;&quot; class=&quot;s2&quot;&gt;）。&lt;/span&gt;&lt;/li&gt;&lt;/ul&gt;&lt;/li&gt;&lt;/ul&gt;" style="shape=note;whiteSpace=wrap;html=1;backgroundOutline=1;darkOpacity=0.05;align=left;spacing=-2;fontSize=11;spacingTop=-2;spacingBottom=-1;spacingLeft=-19;" vertex="1" parent="1">
          <mxGeometry x="320" y="195" width="510" height="70" as="geometry" />
        </mxCell>
        <mxCell id="WO9n8ISheRc9SLPrD6gf-49" value="&lt;ul class=&quot;ul1&quot;&gt;&lt;li class=&quot;li1&quot; style=&quot;margin: 0px; font-variant-numeric: normal; font-variant-east-asian: normal; font-variant-alternates: normal; font-size-adjust: none; font-kerning: auto; font-optical-sizing: auto; font-feature-settings: normal; font-variation-settings: normal; font-variant-position: normal; font-variant-emoji: normal; font-stretch: normal; line-height: normal; font-family: &amp;quot;Helvetica Neue&amp;quot;;&quot;&gt;&lt;p style=&quot;margin: 0px; font-variant-numeric: normal; font-variant-east-asian: normal; font-variant-alternates: normal; font-size-adjust: none; font-kerning: auto; font-optical-sizing: auto; font-feature-settings: normal; font-variation-settings: normal; font-variant-position: normal; font-variant-emoji: normal; font-stretch: normal; line-height: normal;&quot; class=&quot;p1&quot;&gt;3.&amp;nbsp;&lt;b&gt;初始化事件系统&lt;/b&gt;&lt;/p&gt;&lt;ul style=&quot;list-style-type: disc;&quot; class=&quot;ul1&quot;&gt;&lt;li style=&quot;margin: 0px; font-variant-numeric: normal; font-variant-east-asian: normal; font-variant-alternates: normal; font-size-adjust: none; font-kerning: auto; font-optical-sizing: auto; font-feature-settings: normal; font-variation-settings: normal; font-variant-position: normal; font-variant-emoji: normal; font-stretch: normal; line-height: normal;&quot; class=&quot;li1&quot;&gt;&lt;span style=&quot;font-variant-numeric: normal; font-variant-east-asian: normal; font-variant-alternates: normal; font-size-adjust: none; font-kerning: auto; font-optical-sizing: auto; font-feature-settings: normal; font-variation-settings: normal; font-variant-position: normal; font-variant-emoji: normal; font-stretch: normal; line-height: normal; font-family: Menlo;&quot; class=&quot;s1&quot;&gt;&lt;/span&gt;创建&amp;nbsp;_events&amp;nbsp;对象，存储父组件传递的自定义事件监听器（如&amp;nbsp;v-on:event）。&lt;/li&gt;&lt;li style=&quot;margin: 0px; font-variant-numeric: normal; font-variant-east-asian: normal; font-variant-alternates: normal; font-size-adjust: none; font-kerning: auto; font-optical-sizing: auto; font-feature-settings: normal; font-variation-settings: normal; font-variant-position: normal; font-variant-emoji: normal; font-stretch: normal; line-height: normal;&quot; class=&quot;li1&quot;&gt;&lt;span style=&quot;font-variant-numeric: normal; font-variant-east-asian: normal; font-variant-alternates: normal; font-size-adjust: none; font-kerning: auto; font-optical-sizing: auto; font-feature-settings: normal; font-variation-settings: normal; font-variant-position: normal; font-variant-emoji: normal; font-stretch: normal; line-height: normal; font-family: Menlo;&quot; class=&quot;s1&quot;&gt;&lt;/span&gt;&lt;span style=&quot;font-variant-numeric: normal; font-variant-east-asian: normal; font-variant-alternates: normal; font-size-adjust: none; font-kerning: auto; font-optical-sizing: auto; font-feature-settings: normal; font-variation-settings: normal; font-variant-position: normal; font-variant-emoji: normal; font-stretch: normal; line-height: normal; font-family: &amp;quot;PingFang SC&amp;quot;;&quot; class=&quot;s2&quot;&gt;处理组件上的原生&lt;/span&gt; DOM &lt;span style=&quot;font-variant-numeric: normal; font-variant-east-asian: normal; font-variant-alternates: normal; font-size-adjust: none; font-kerning: auto; font-optical-sizing: auto; font-feature-settings: normal; font-variation-settings: normal; font-variant-position: normal; font-variant-emoji: normal; font-stretch: normal; line-height: normal; font-family: &amp;quot;PingFang SC&amp;quot;;&quot; class=&quot;s2&quot;&gt;事件（如&lt;/span&gt;&amp;nbsp;@click.native&lt;span style=&quot;font-variant-numeric: normal; font-variant-east-asian: normal; font-variant-alternates: normal; font-size-adjust: none; font-kerning: auto; font-optical-sizing: auto; font-feature-settings: normal; font-variation-settings: normal; font-variant-position: normal; font-variant-emoji: normal; font-stretch: normal; line-height: normal; font-family: &amp;quot;PingFang SC&amp;quot;;&quot; class=&quot;s2&quot;&gt;）。&lt;/span&gt;&lt;/li&gt;&lt;/ul&gt;&lt;/li&gt;&lt;/ul&gt;" style="shape=note;whiteSpace=wrap;html=1;backgroundOutline=1;darkOpacity=0.05;align=left;spacing=-2;fontSize=11;spacingTop=-2;spacingBottom=-1;spacingLeft=-19;" vertex="1" parent="1">
          <mxGeometry x="320" y="280" width="510" height="70" as="geometry" />
        </mxCell>
        <mxCell id="WO9n8ISheRc9SLPrD6gf-50" value="&lt;ul class=&quot;ul1&quot;&gt;&lt;li class=&quot;li1&quot; style=&quot;margin: 0px; font-variant-numeric: normal; font-variant-east-asian: normal; font-variant-alternates: normal; font-size-adjust: none; font-kerning: auto; font-optical-sizing: auto; font-feature-settings: normal; font-variation-settings: normal; font-variant-position: normal; font-variant-emoji: normal; font-stretch: normal; line-height: normal; font-family: &amp;quot;Helvetica Neue&amp;quot;;&quot;&gt;&lt;p style=&quot;margin: 0px; font-variant-numeric: normal; font-variant-east-asian: normal; font-variant-alternates: normal; font-size-adjust: none; font-kerning: auto; font-optical-sizing: auto; font-feature-settings: normal; font-variation-settings: normal; font-variant-position: normal; font-variant-emoji: normal; font-stretch: normal; line-height: normal;&quot; class=&quot;p1&quot;&gt;4.&amp;nbsp;&lt;b&gt;初始化渲染相关功能&lt;/b&gt;&lt;/p&gt;&lt;ul style=&quot;list-style-type: disc;&quot; class=&quot;ul1&quot;&gt;&lt;li style=&quot;margin: 0px; font-variant-numeric: normal; font-variant-east-asian: normal; font-variant-alternates: normal; font-size-adjust: none; font-kerning: auto; font-optical-sizing: auto; font-feature-settings: normal; font-variation-settings: normal; font-variant-position: normal; font-variant-emoji: normal; font-stretch: normal; line-height: normal;&quot; class=&quot;li1&quot;&gt;&lt;span style=&quot;font-variant-numeric: normal; font-variant-east-asian: normal; font-variant-alternates: normal; font-size-adjust: none; font-kerning: auto; font-optical-sizing: auto; font-feature-settings: normal; font-variation-settings: normal; font-variant-position: normal; font-variant-emoji: normal; font-stretch: normal; line-height: normal; font-family: Menlo;&quot; class=&quot;s1&quot;&gt;&lt;/span&gt;定义&amp;nbsp;$slots&amp;nbsp;和&amp;nbsp;$scopedSlots，处理插槽内容。&lt;/li&gt;&lt;li style=&quot;margin: 0px; font-variant-numeric: normal; font-variant-east-asian: normal; font-variant-alternates: normal; font-size-adjust: none; font-kerning: auto; font-optical-sizing: auto; font-feature-settings: normal; font-variation-settings: normal; font-variant-position: normal; font-variant-emoji: normal; font-stretch: normal; line-height: normal; font-family: &amp;quot;PingFang SC&amp;quot;;&quot; class=&quot;li2&quot;&gt;&lt;span style=&quot;font-variant-numeric: normal; font-variant-east-asian: normal; font-variant-alternates: normal; font-size-adjust: none; font-kerning: auto; font-optical-sizing: auto; font-feature-settings: normal; font-variation-settings: normal; font-variant-position: normal; font-variant-emoji: normal; font-stretch: normal; line-height: normal; font-family: Menlo;&quot; class=&quot;s1&quot;&gt;&lt;/span&gt;创建&lt;span style=&quot;font-variant-numeric: normal; font-variant-east-asian: normal; font-variant-alternates: normal; font-size-adjust: none; font-kerning: auto; font-optical-sizing: auto; font-feature-settings: normal; font-variation-settings: normal; font-variant-position: normal; font-variant-emoji: normal; font-stretch: normal; line-height: normal; font-family: &amp;quot;Helvetica Neue&amp;quot;;&quot; class=&quot;s2&quot;&gt;&amp;nbsp;$createElement&amp;nbsp;&lt;/span&gt;函数，用于生成虚拟&lt;span style=&quot;font-variant-numeric: normal; font-variant-east-asian: normal; font-variant-alternates: normal; font-size-adjust: none; font-kerning: auto; font-optical-sizing: auto; font-feature-settings: normal; font-variation-settings: normal; font-variant-position: normal; font-variant-emoji: normal; font-stretch: normal; line-height: normal; font-family: &amp;quot;Helvetica Neue&amp;quot;;&quot; class=&quot;s2&quot;&gt; DOM &lt;/span&gt;节点（支持模板编译后的渲染逻辑）。&lt;/li&gt;&lt;/ul&gt;&lt;/li&gt;&lt;/ul&gt;" style="shape=note;whiteSpace=wrap;html=1;backgroundOutline=1;darkOpacity=0.05;align=left;spacing=-2;fontSize=11;spacingTop=-2;spacingBottom=-1;spacingLeft=-19;" vertex="1" parent="1">
          <mxGeometry x="320" y="375" width="510" height="70" as="geometry" />
        </mxCell>
        <mxCell id="WO9n8ISheRc9SLPrD6gf-52" value="&lt;ul class=&quot;ul1&quot;&gt;&lt;li class=&quot;li1&quot; style=&quot;margin: 0px; font-variant-numeric: normal; font-variant-east-asian: normal; font-variant-alternates: normal; font-size-adjust: none; font-kerning: auto; font-optical-sizing: auto; font-feature-settings: normal; font-variation-settings: normal; font-variant-position: normal; font-variant-emoji: normal; font-stretch: normal; line-height: normal; font-family: &amp;quot;Helvetica Neue&amp;quot;;&quot;&gt;&lt;p style=&quot;margin: 0px; font-variant-numeric: normal; font-variant-east-asian: normal; font-variant-alternates: normal; font-size-adjust: none; font-kerning: auto; font-optical-sizing: auto; font-feature-settings: normal; font-variation-settings: normal; font-variant-position: normal; font-variant-emoji: normal; font-stretch: normal; line-height: normal;&quot; class=&quot;p1&quot;&gt;5.&amp;nbsp;&lt;b&gt;调用&amp;nbsp;beforeCreate&amp;nbsp;生命周期钩子&lt;/b&gt;&lt;/p&gt;&lt;ul style=&quot;list-style-type: disc;&quot; class=&quot;ul1&quot;&gt;&lt;li style=&quot;margin: 0px; font-variant-numeric: normal; font-variant-east-asian: normal; font-variant-alternates: normal; font-size-adjust: none; font-kerning: auto; font-optical-sizing: auto; font-feature-settings: normal; font-variation-settings: normal; font-variant-position: normal; font-variant-emoji: normal; font-stretch: normal; line-height: normal; font-family: &amp;quot;PingFang SC&amp;quot;;&quot; class=&quot;li2&quot;&gt;&lt;span style=&quot;font-variant-numeric: normal; font-variant-east-asian: normal; font-variant-alternates: normal; font-size-adjust: none; font-kerning: auto; font-optical-sizing: auto; font-feature-settings: normal; font-variation-settings: normal; font-variant-position: normal; font-variant-emoji: normal; font-stretch: normal; line-height: normal; font-family: Menlo;&quot; class=&quot;s1&quot;&gt;&lt;/span&gt;此时实例的&lt;span style=&quot;font-variant-numeric: normal; font-variant-east-asian: normal; font-variant-alternates: normal; font-size-adjust: none; font-kerning: auto; font-optical-sizing: auto; font-feature-settings: normal; font-variation-settings: normal; font-variant-position: normal; font-variant-emoji: normal; font-stretch: normal; line-height: normal; font-family: &amp;quot;Helvetica Neue&amp;quot;;&quot; class=&quot;s2&quot;&gt;&amp;nbsp;data&lt;/span&gt;、&lt;span style=&quot;font-variant-numeric: normal; font-variant-east-asian: normal; font-variant-alternates: normal; font-size-adjust: none; font-kerning: auto; font-optical-sizing: auto; font-feature-settings: normal; font-variation-settings: normal; font-variant-position: normal; font-variant-emoji: normal; font-stretch: normal; line-height: normal; font-family: &amp;quot;Helvetica Neue&amp;quot;;&quot; class=&quot;s2&quot;&gt;methods&lt;/span&gt;、&lt;span style=&quot;font-variant-numeric: normal; font-variant-east-asian: normal; font-variant-alternates: normal; font-size-adjust: none; font-kerning: auto; font-optical-sizing: auto; font-feature-settings: normal; font-variation-settings: normal; font-variant-position: normal; font-variant-emoji: normal; font-stretch: normal; line-height: normal; font-family: &amp;quot;Helvetica Neue&amp;quot;;&quot; class=&quot;s2&quot;&gt;props&amp;nbsp;&lt;/span&gt;等尚未初始化，无法访问这些属性。&lt;/li&gt;&lt;/ul&gt;&lt;/li&gt;&lt;/ul&gt;" style="shape=note;whiteSpace=wrap;html=1;backgroundOutline=1;darkOpacity=0.05;align=left;spacing=-2;fontSize=11;spacingTop=-2;spacingBottom=-1;spacingLeft=-19;" vertex="1" parent="1">
          <mxGeometry x="320" y="470" width="510" height="70" as="geometry" />
        </mxCell>
        <mxCell id="WO9n8ISheRc9SLPrD6gf-53" style="edgeStyle=orthogonalEdgeStyle;rounded=0;orthogonalLoop=1;jettySize=auto;html=1;exitX=1;exitY=0.25;exitDx=0;exitDy=0;entryX=-0.005;entryY=0.371;entryDx=0;entryDy=0;entryPerimeter=0;" edge="1" parent="1" source="WO9n8ISheRc9SLPrD6gf-9" target="WO9n8ISheRc9SLPrD6gf-52">
          <mxGeometry relative="1" as="geometry" />
        </mxCell>
        <mxCell id="WO9n8ISheRc9SLPrD6gf-54" value="&lt;ul class=&quot;ul1&quot;&gt;&lt;li style=&quot;margin: 0px; font-variant-numeric: normal; font-variant-east-asian: normal; font-variant-alternates: normal; font-size-adjust: none; font-kerning: auto; font-optical-sizing: auto; font-feature-settings: normal; font-variation-settings: normal; font-variant-position: normal; font-variant-emoji: normal; font-stretch: normal; line-height: normal; font-family: &amp;quot;Helvetica Neue&amp;quot;;&quot; class=&quot;li1&quot;&gt;&lt;p class=&quot;p1&quot; style=&quot;margin: 0px; font-variant-numeric: normal; font-variant-east-asian: normal; font-variant-alternates: normal; font-size-adjust: none; font-kerning: auto; font-optical-sizing: auto; font-feature-settings: normal; font-variation-settings: normal; font-variant-position: normal; font-variant-emoji: normal; font-stretch: normal; line-height: normal;&quot;&gt;6.&amp;nbsp;&lt;b&gt;初始化依赖注入（inject）&lt;/b&gt;&lt;/p&gt;&lt;ul class=&quot;ul1&quot; style=&quot;list-style-type: disc;&quot;&gt;&lt;li class=&quot;li1&quot; style=&quot;margin: 0px; font-variant-numeric: normal; font-variant-east-asian: normal; font-variant-alternates: normal; font-size-adjust: none; font-kerning: auto; font-optical-sizing: auto; font-feature-settings: normal; font-variation-settings: normal; font-variant-position: normal; font-variant-emoji: normal; font-stretch: normal; line-height: normal;&quot;&gt;&lt;span class=&quot;s1&quot; style=&quot;font-variant-numeric: normal; font-variant-east-asian: normal; font-variant-alternates: normal; font-size-adjust: none; font-kerning: auto; font-optical-sizing: auto; font-feature-settings: normal; font-variation-settings: normal; font-variant-position: normal; font-variant-emoji: normal; font-stretch: normal; line-height: normal; font-family: Menlo;&quot;&gt;&lt;/span&gt;解析父组件通过&amp;nbsp;provide&amp;nbsp;提供的依赖，并将值注入到当前实例中。&lt;/li&gt;&lt;li class=&quot;li2&quot; style=&quot;margin: 0px; font-variant-numeric: normal; font-variant-east-asian: normal; font-variant-alternates: normal; font-size-adjust: none; font-kerning: auto; font-optical-sizing: auto; font-feature-settings: normal; font-variation-settings: normal; font-variant-position: normal; font-variant-emoji: normal; font-stretch: normal; line-height: normal; font-family: &amp;quot;PingFang SC&amp;quot;;&quot;&gt;&lt;span class=&quot;s1&quot; style=&quot;font-variant-numeric: normal; font-variant-east-asian: normal; font-variant-alternates: normal; font-size-adjust: none; font-kerning: auto; font-optical-sizing: auto; font-feature-settings: normal; font-variation-settings: normal; font-variant-position: normal; font-variant-emoji: normal; font-stretch: normal; line-height: normal; font-family: Menlo;&quot;&gt;&lt;/span&gt;支持响应式处理（若父组件提供的是响应式数据）。&lt;/li&gt;&lt;/ul&gt;&lt;/li&gt;&lt;/ul&gt;" style="shape=note;whiteSpace=wrap;html=1;backgroundOutline=1;darkOpacity=0.05;align=left;spacing=-2;fontSize=10;spacingTop=-2;spacingBottom=-1;spacingLeft=-19;" vertex="1" parent="1">
          <mxGeometry x="320" y="560" width="510" height="70" as="geometry" />
        </mxCell>
        <mxCell id="WO9n8ISheRc9SLPrD6gf-55" style="edgeStyle=orthogonalEdgeStyle;rounded=0;orthogonalLoop=1;jettySize=auto;html=1;exitX=1;exitY=0.5;exitDx=0;exitDy=0;entryX=0;entryY=0.5;entryDx=0;entryDy=0;entryPerimeter=0;" edge="1" parent="1" source="WO9n8ISheRc9SLPrD6gf-13" target="WO9n8ISheRc9SLPrD6gf-54">
          <mxGeometry relative="1" as="geometry" />
        </mxCell>
        <mxCell id="WO9n8ISheRc9SLPrD6gf-56" value="&lt;ul class=&quot;ul1&quot;&gt;&lt;li class=&quot;li1&quot; style=&quot;margin: 0px; font-variant-numeric: normal; font-variant-east-asian: normal; font-variant-alternates: normal; font-size-adjust: none; font-kerning: auto; font-optical-sizing: auto; font-feature-settings: normal; font-variation-settings: normal; font-variant-position: normal; font-variant-emoji: normal; font-stretch: normal; line-height: normal; font-family: &amp;quot;Helvetica Neue&amp;quot;;&quot;&gt;&lt;p class=&quot;p1&quot; style=&quot;margin: 0px; font-variant-numeric: normal; font-variant-east-asian: normal; font-variant-alternates: normal; font-size-adjust: none; font-kerning: auto; font-optical-sizing: auto; font-feature-settings: normal; font-variation-settings: normal; font-variant-position: normal; font-variant-emoji: normal; font-stretch: normal; line-height: normal;&quot;&gt;7.&amp;nbsp;&lt;b&gt;初始化状态（State）&lt;/b&gt;&lt;b style=&quot;background-color: transparent; color: light-dark(rgb(0, 0, 0), rgb(255, 255, 255));&quot;&gt;按顺序处理关键选项，确保依赖关系正确：&lt;/b&gt;&lt;/p&gt;&lt;ul class=&quot;ul1&quot; style=&quot;list-style-type: disc;&quot;&gt;&lt;li class=&quot;li1&quot; style=&quot;margin: 0px; font-variant-numeric: normal; font-variant-east-asian: normal; font-variant-alternates: normal; font-size-adjust: none; font-kerning: auto; font-optical-sizing: auto; font-feature-settings: normal; font-variation-settings: normal; font-variant-position: normal; font-variant-emoji: normal; font-stretch: normal; line-height: normal;&quot;&gt;&lt;span class=&quot;s1&quot; style=&quot;font-variant-numeric: normal; font-variant-east-asian: normal; font-variant-alternates: normal; font-size-adjust: none; font-kerning: auto; font-optical-sizing: auto; font-feature-settings: normal; font-variation-settings: normal; font-variant-position: normal; font-variant-emoji: normal; font-stretch: normal; line-height: normal; font-family: Menlo;&quot;&gt;&lt;/span&gt;&lt;b&gt;props&lt;/b&gt;：解析父组件传递的&amp;nbsp;props，并转为响应式。&lt;/li&gt;&lt;li class=&quot;li1&quot; style=&quot;margin: 0px; font-variant-numeric: normal; font-variant-east-asian: normal; font-variant-alternates: normal; font-size-adjust: none; font-kerning: auto; font-optical-sizing: auto; font-feature-settings: normal; font-variation-settings: normal; font-variant-position: normal; font-variant-emoji: normal; font-stretch: normal; line-height: normal;&quot;&gt;&lt;span class=&quot;s1&quot; style=&quot;font-variant-numeric: normal; font-variant-east-asian: normal; font-variant-alternates: normal; font-size-adjust: none; font-kerning: auto; font-optical-sizing: auto; font-feature-settings: normal; font-variation-settings: normal; font-variant-position: normal; font-variant-emoji: normal; font-stretch: normal; line-height: normal; font-family: Menlo;&quot;&gt;&lt;/span&gt;&lt;b&gt;methods&lt;/b&gt;：将方法挂载到实例，支持通过&amp;nbsp;this.methodName&amp;nbsp;调用。&lt;/li&gt;&lt;li class=&quot;li1&quot; style=&quot;margin: 0px; font-variant-numeric: normal; font-variant-east-asian: normal; font-variant-alternates: normal; font-size-adjust: none; font-kerning: auto; font-optical-sizing: auto; font-feature-settings: normal; font-variation-settings: normal; font-variant-position: normal; font-variant-emoji: normal; font-stretch: normal; line-height: normal;&quot;&gt;&lt;span class=&quot;s1&quot; style=&quot;font-variant-numeric: normal; font-variant-east-asian: normal; font-variant-alternates: normal; font-size-adjust: none; font-kerning: auto; font-optical-sizing: auto; font-feature-settings: normal; font-variation-settings: normal; font-variant-position: normal; font-variant-emoji: normal; font-stretch: normal; line-height: normal; font-family: Menlo;&quot;&gt;&lt;/span&gt;&lt;b&gt;data&lt;/b&gt;：转为响应式对象（通过&amp;nbsp;Object.defineProperty），存入&amp;nbsp;_data，并代理到实例。&lt;/li&gt;&lt;li class=&quot;li1&quot; style=&quot;margin: 0px; font-variant-numeric: normal; font-variant-east-asian: normal; font-variant-alternates: normal; font-size-adjust: none; font-kerning: auto; font-optical-sizing: auto; font-feature-settings: normal; font-variation-settings: normal; font-variant-position: normal; font-variant-emoji: normal; font-stretch: normal; line-height: normal;&quot;&gt;&lt;span class=&quot;s1&quot; style=&quot;font-variant-numeric: normal; font-variant-east-asian: normal; font-variant-alternates: normal; font-size-adjust: none; font-kerning: auto; font-optical-sizing: auto; font-feature-settings: normal; font-variation-settings: normal; font-variant-position: normal; font-variant-emoji: normal; font-stretch: normal; line-height: normal; font-family: Menlo;&quot;&gt;&lt;/span&gt;&lt;b&gt;computed&lt;/b&gt;：定义计算属性，创建惰性求值的响应式&amp;nbsp;Watcher。&lt;/li&gt;&lt;li class=&quot;li1&quot; style=&quot;margin: 0px; font-variant-numeric: normal; font-variant-east-asian: normal; font-variant-alternates: normal; font-size-adjust: none; font-kerning: auto; font-optical-sizing: auto; font-feature-settings: normal; font-variation-settings: normal; font-variant-position: normal; font-variant-emoji: normal; font-stretch: normal; line-height: normal;&quot;&gt;&lt;span class=&quot;s1&quot; style=&quot;font-variant-numeric: normal; font-variant-east-asian: normal; font-variant-alternates: normal; font-size-adjust: none; font-kerning: auto; font-optical-sizing: auto; font-feature-settings: normal; font-variation-settings: normal; font-variant-position: normal; font-variant-emoji: normal; font-stretch: normal; line-height: normal; font-family: Menlo;&quot;&gt;&lt;/span&gt;&lt;b&gt;watch&lt;/b&gt;&lt;span class=&quot;s2&quot; style=&quot;font-variant-numeric: normal; font-variant-east-asian: normal; font-variant-alternates: normal; font-size-adjust: none; font-kerning: auto; font-optical-sizing: auto; font-feature-settings: normal; font-variation-settings: normal; font-variant-position: normal; font-variant-emoji: normal; font-stretch: normal; line-height: normal; font-family: &amp;quot;PingFang SC&amp;quot;;&quot;&gt;：初始化侦听器，为每个&lt;/span&gt;&amp;nbsp;watch&amp;nbsp;&lt;span class=&quot;s2&quot; style=&quot;font-variant-numeric: normal; font-variant-east-asian: normal; font-variant-alternates: normal; font-size-adjust: none; font-kerning: auto; font-optical-sizing: auto; font-feature-settings: normal; font-variation-settings: normal; font-variant-position: normal; font-variant-emoji: normal; font-stretch: normal; line-height: normal; font-family: &amp;quot;PingFang SC&amp;quot;;&quot;&gt;项创建&lt;/span&gt;&amp;nbsp;Watcher&lt;span class=&quot;s2&quot; style=&quot;font-variant-numeric: normal; font-variant-east-asian: normal; font-variant-alternates: normal; font-size-adjust: none; font-kerning: auto; font-optical-sizing: auto; font-feature-settings: normal; font-variation-settings: normal; font-variant-position: normal; font-variant-emoji: normal; font-stretch: normal; line-height: normal; font-family: &amp;quot;PingFang SC&amp;quot;;&quot;&gt;。&lt;/span&gt;&lt;/li&gt;&lt;/ul&gt;&lt;/li&gt;&lt;/ul&gt;" style="shape=note;whiteSpace=wrap;html=1;backgroundOutline=1;darkOpacity=0.05;align=left;spacing=-2;fontSize=11;spacingTop=-2;spacingBottom=-1;spacingLeft=-19;" vertex="1" parent="1">
          <mxGeometry x="320" y="645" width="510" height="110" as="geometry" />
        </mxCell>
        <mxCell id="WO9n8ISheRc9SLPrD6gf-59" value="&lt;ul class=&quot;ul1&quot;&gt;&lt;li class=&quot;li1&quot; style=&quot;margin: 0px; font-variant-numeric: normal; font-variant-east-asian: normal; font-variant-alternates: normal; font-size-adjust: none; font-kerning: auto; font-optical-sizing: auto; font-feature-settings: normal; font-variation-settings: normal; font-variant-position: normal; font-variant-emoji: normal; font-stretch: normal; line-height: normal; font-family: &amp;quot;Helvetica Neue&amp;quot;;&quot;&gt;&lt;p class=&quot;p1&quot; style=&quot;margin: 0px; font-variant-numeric: normal; font-variant-east-asian: normal; font-variant-alternates: normal; font-size-adjust: none; font-kerning: auto; font-optical-sizing: auto; font-feature-settings: normal; font-variation-settings: normal; font-variant-position: normal; font-variant-emoji: normal; font-stretch: normal; line-height: normal;&quot;&gt;8.&amp;nbsp;&lt;b&gt;初始化&amp;nbsp;provide&lt;/b&gt;&lt;/p&gt;&lt;ul class=&quot;ul1&quot; style=&quot;list-style-type: disc;&quot;&gt;&lt;li class=&quot;li2&quot; style=&quot;margin: 0px; font-variant-numeric: normal; font-variant-east-asian: normal; font-variant-alternates: normal; font-size-adjust: none; font-kerning: auto; font-optical-sizing: auto; font-feature-settings: normal; font-variation-settings: normal; font-variant-position: normal; font-variant-emoji: normal; font-stretch: normal; line-height: normal; font-family: &amp;quot;PingFang SC&amp;quot;;&quot;&gt;&lt;span class=&quot;s1&quot; style=&quot;font-variant-numeric: normal; font-variant-east-asian: normal; font-variant-alternates: normal; font-size-adjust: none; font-kerning: auto; font-optical-sizing: auto; font-feature-settings: normal; font-variation-settings: normal; font-variant-position: normal; font-variant-emoji: normal; font-stretch: normal; line-height: normal; font-family: Menlo;&quot;&gt;&lt;/span&gt;若存在&lt;span class=&quot;s2&quot; style=&quot;font-variant-numeric: normal; font-variant-east-asian: normal; font-variant-alternates: normal; font-size-adjust: none; font-kerning: auto; font-optical-sizing: auto; font-feature-settings: normal; font-variation-settings: normal; font-variant-position: normal; font-variant-emoji: normal; font-stretch: normal; line-height: normal; font-family: &amp;quot;Helvetica Neue&amp;quot;;&quot;&gt;&amp;nbsp;provide&amp;nbsp;&lt;/span&gt;选项，将其处理为函数或对象，并挂载到实例（可访问&lt;span class=&quot;s2&quot; style=&quot;font-variant-numeric: normal; font-variant-east-asian: normal; font-variant-alternates: normal; font-size-adjust: none; font-kerning: auto; font-optical-sizing: auto; font-feature-settings: normal; font-variation-settings: normal; font-variant-position: normal; font-variant-emoji: normal; font-stretch: normal; line-height: normal; font-family: &amp;quot;Helvetica Neue&amp;quot;;&quot;&gt;&amp;nbsp;data&amp;nbsp;&lt;/span&gt;中的属性）。&lt;/li&gt;&lt;/ul&gt;&lt;/li&gt;&lt;/ul&gt;" style="shape=note;whiteSpace=wrap;html=1;backgroundOutline=1;darkOpacity=0.05;align=left;spacing=-2;fontSize=11;spacingTop=-2;spacingBottom=-1;spacingLeft=-19;" vertex="1" parent="1">
          <mxGeometry x="320" y="770" width="510" height="70" as="geometry" />
        </mxCell>
        <mxCell id="WO9n8ISheRc9SLPrD6gf-60" value="&lt;ul class=&quot;ul1&quot;&gt;&lt;li class=&quot;li1&quot; style=&quot;margin: 0px; font-variant-numeric: normal; font-variant-east-asian: normal; font-variant-alternates: normal; font-size-adjust: none; font-kerning: auto; font-optical-sizing: auto; font-feature-settings: normal; font-variation-settings: normal; font-variant-position: normal; font-variant-emoji: normal; font-stretch: normal; line-height: normal; font-family: &amp;quot;Helvetica Neue&amp;quot;;&quot;&gt;&lt;p style=&quot;margin: 0px; font-variant-numeric: normal; font-variant-east-asian: normal; font-variant-alternates: normal; font-size-adjust: none; font-kerning: auto; font-optical-sizing: auto; font-feature-settings: normal; font-variation-settings: normal; font-variant-position: normal; font-variant-emoji: normal; font-stretch: normal; line-height: normal;&quot; class=&quot;p1&quot;&gt;9.&amp;nbsp;&lt;b&gt;调用&amp;nbsp;created&amp;nbsp;生命周期钩子&lt;/b&gt;&lt;/p&gt;&lt;ul style=&quot;list-style-type: disc;&quot; class=&quot;ul1&quot;&gt;&lt;li style=&quot;margin: 0px; font-variant-numeric: normal; font-variant-east-asian: normal; font-variant-alternates: normal; font-size-adjust: none; font-kerning: auto; font-optical-sizing: auto; font-feature-settings: normal; font-variation-settings: normal; font-variant-position: normal; font-variant-emoji: normal; font-stretch: normal; line-height: normal; font-family: &amp;quot;PingFang SC&amp;quot;;&quot; class=&quot;li2&quot;&gt;&lt;span style=&quot;font-variant-numeric: normal; font-variant-east-asian: normal; font-variant-alternates: normal; font-size-adjust: none; font-kerning: auto; font-optical-sizing: auto; font-feature-settings: normal; font-variation-settings: normal; font-variant-position: normal; font-variant-emoji: normal; font-stretch: normal; line-height: normal; font-family: Menlo;&quot; class=&quot;s1&quot;&gt;&lt;/span&gt;此时&lt;span style=&quot;font-variant-numeric: normal; font-variant-east-asian: normal; font-variant-alternates: normal; font-size-adjust: none; font-kerning: auto; font-optical-sizing: auto; font-feature-settings: normal; font-variation-settings: normal; font-variant-position: normal; font-variant-emoji: normal; font-stretch: normal; line-height: normal; font-family: &amp;quot;Helvetica Neue&amp;quot;;&quot; class=&quot;s2&quot;&gt;&amp;nbsp;props&lt;/span&gt;、&lt;span style=&quot;font-variant-numeric: normal; font-variant-east-asian: normal; font-variant-alternates: normal; font-size-adjust: none; font-kerning: auto; font-optical-sizing: auto; font-feature-settings: normal; font-variation-settings: normal; font-variant-position: normal; font-variant-emoji: normal; font-stretch: normal; line-height: normal; font-family: &amp;quot;Helvetica Neue&amp;quot;;&quot; class=&quot;s2&quot;&gt;data&lt;/span&gt;、&lt;span style=&quot;font-variant-numeric: normal; font-variant-east-asian: normal; font-variant-alternates: normal; font-size-adjust: none; font-kerning: auto; font-optical-sizing: auto; font-feature-settings: normal; font-variation-settings: normal; font-variant-position: normal; font-variant-emoji: normal; font-stretch: normal; line-height: normal; font-family: &amp;quot;Helvetica Neue&amp;quot;;&quot; class=&quot;s2&quot;&gt;methods&amp;nbsp;&lt;/span&gt;等已初始化完毕，可访问这些属性，但&lt;span style=&quot;font-variant-numeric: normal; font-variant-east-asian: normal; font-variant-alternates: normal; font-size-adjust: none; font-kerning: auto; font-optical-sizing: auto; font-feature-settings: normal; font-variation-settings: normal; font-variant-position: normal; font-variant-emoji: normal; font-stretch: normal; line-height: normal; font-family: &amp;quot;Helvetica Neue&amp;quot;;&quot; class=&quot;s2&quot;&gt; DOM &lt;/span&gt;未挂载。&lt;/li&gt;&lt;/ul&gt;&lt;/li&gt;&lt;/ul&gt;" style="shape=note;whiteSpace=wrap;html=1;backgroundOutline=1;darkOpacity=0.05;align=left;spacing=-2;fontSize=11;spacingTop=-2;spacingBottom=-1;spacingLeft=-19;" vertex="1" parent="1">
          <mxGeometry x="320" y="855" width="510" height="70" as="geometry" />
        </mxCell>
        <mxCell id="WO9n8ISheRc9SLPrD6gf-62" value="&lt;ul class=&quot;ul1&quot;&gt;&lt;li class=&quot;li1&quot; style=&quot;margin: 0px; font-variant-numeric: normal; font-variant-east-asian: normal; font-variant-alternates: normal; font-size-adjust: none; font-kerning: auto; font-optical-sizing: auto; font-feature-settings: normal; font-variation-settings: normal; font-variant-position: normal; font-variant-emoji: normal; font-stretch: normal; line-height: normal; font-family: &amp;quot;Helvetica Neue&amp;quot;;&quot;&gt;&lt;p style=&quot;margin: 0px; font-variant-numeric: normal; font-variant-east-asian: normal; font-variant-alternates: normal; font-size-adjust: none; font-kerning: auto; font-optical-sizing: auto; font-feature-settings: normal; font-variation-settings: normal; font-variant-position: normal; font-variant-emoji: normal; font-stretch: normal; line-height: normal;&quot; class=&quot;p1&quot;&gt;10.&amp;nbsp;&lt;b&gt;自动挂载（若配置&amp;nbsp;el&amp;nbsp;选项）&lt;/b&gt;&lt;/p&gt;&lt;ul style=&quot;list-style-type: disc;&quot; class=&quot;ul1&quot;&gt;&lt;li style=&quot;margin: 0px; font-variant-numeric: normal; font-variant-east-asian: normal; font-variant-alternates: normal; font-size-adjust: none; font-kerning: auto; font-optical-sizing: auto; font-feature-settings: normal; font-variation-settings: normal; font-variant-position: normal; font-variant-emoji: normal; font-stretch: normal; line-height: normal;&quot; class=&quot;li1&quot;&gt;&lt;span style=&quot;font-variant-numeric: normal; font-variant-east-asian: normal; font-variant-alternates: normal; font-size-adjust: none; font-kerning: auto; font-optical-sizing: auto; font-feature-settings: normal; font-variation-settings: normal; font-variant-position: normal; font-variant-emoji: normal; font-stretch: normal; line-height: normal; font-family: Menlo;&quot; class=&quot;s1&quot;&gt;&lt;/span&gt;&lt;span style=&quot;font-variant-numeric: normal; font-variant-east-asian: normal; font-variant-alternates: normal; font-size-adjust: none; font-kerning: auto; font-optical-sizing: auto; font-feature-settings: normal; font-variation-settings: normal; font-variant-position: normal; font-variant-emoji: normal; font-stretch: normal; line-height: normal; font-family: &amp;quot;PingFang SC&amp;quot;;&quot; class=&quot;s2&quot;&gt;若存在&lt;/span&gt;&amp;nbsp;el&lt;span style=&quot;font-variant-numeric: normal; font-variant-east-asian: normal; font-variant-alternates: normal; font-size-adjust: none; font-kerning: auto; font-optical-sizing: auto; font-feature-settings: normal; font-variation-settings: normal; font-variant-position: normal; font-variant-emoji: normal; font-stretch: normal; line-height: normal; font-family: &amp;quot;PingFang SC&amp;quot;;&quot; class=&quot;s2&quot;&gt;，调用&lt;/span&gt;&amp;nbsp;vm.$mount(el)&lt;span style=&quot;font-variant-numeric: normal; font-variant-east-asian: normal; font-variant-alternates: normal; font-size-adjust: none; font-kerning: auto; font-optical-sizing: auto; font-feature-settings: normal; font-variation-settings: normal; font-variant-position: normal; font-variant-emoji: normal; font-stretch: normal; line-height: normal; font-family: &amp;quot;PingFang SC&amp;quot;;&quot; class=&quot;s2&quot;&gt;，进入模板编译与&lt;/span&gt; DOM &lt;span style=&quot;font-variant-numeric: normal; font-variant-east-asian: normal; font-variant-alternates: normal; font-size-adjust: none; font-kerning: auto; font-optical-sizing: auto; font-feature-settings: normal; font-variation-settings: normal; font-variant-position: normal; font-variant-emoji: normal; font-stretch: normal; line-height: normal; font-family: &amp;quot;PingFang SC&amp;quot;;&quot; class=&quot;s2&quot;&gt;挂载阶段。&lt;/span&gt;&lt;/li&gt;&lt;/ul&gt;&lt;/li&gt;&lt;/ul&gt;" style="shape=note;whiteSpace=wrap;html=1;backgroundOutline=1;darkOpacity=0.05;align=left;spacing=-2;fontSize=11;spacingTop=-2;spacingBottom=-1;spacingLeft=-19;" vertex="1" parent="1">
          <mxGeometry x="323" y="963.75" width="510" height="52.5" as="geometry" />
        </mxCell>
        <mxCell id="WO9n8ISheRc9SLPrD6gf-63" style="edgeStyle=orthogonalEdgeStyle;rounded=0;orthogonalLoop=1;jettySize=auto;html=1;exitX=1;exitY=0.5;exitDx=0;exitDy=0;entryX=0;entryY=0.5;entryDx=0;entryDy=0;entryPerimeter=0;" edge="1" parent="1" source="WO9n8ISheRc9SLPrD6gf-15" target="WO9n8ISheRc9SLPrD6gf-62">
          <mxGeometry relative="1" as="geometry" />
        </mxCell>
        <mxCell id="WO9n8ISheRc9SLPrD6gf-64" value="&lt;ul class=&quot;ul1&quot;&gt;&lt;li class=&quot;li1&quot; style=&quot;margin: 0px; font-variant-numeric: normal; font-variant-east-asian: normal; font-variant-alternates: normal; font-size-adjust: none; font-kerning: auto; font-optical-sizing: auto; font-feature-settings: normal; font-variation-settings: normal; font-variant-position: normal; font-variant-emoji: normal; font-stretch: normal; line-height: normal; font-family: &amp;quot;Helvetica Neue&amp;quot;;&quot;&gt;&lt;ul style=&quot;list-style-type: disc; font-size: medium;&quot; class=&quot;ul1&quot;&gt;&lt;li style=&quot;margin: 0px; font-variant-numeric: normal; font-variant-east-asian: normal; font-variant-alternates: normal; font-size-adjust: none; font-kerning: auto; font-optical-sizing: auto; font-feature-settings: normal; font-variation-settings: normal; font-variant-position: normal; font-variant-emoji: normal; font-stretch: normal; font-size: 13px; line-height: normal;&quot; class=&quot;li1&quot;&gt;&lt;font style=&quot;color: rgb(255, 0, 0);&quot;&gt;&lt;b&gt;&lt;span style=&quot;font-variant-numeric: normal; font-variant-east-asian: normal; font-variant-alternates: normal; font-size-adjust: none; font-kerning: auto; font-optical-sizing: auto; font-feature-settings: normal; font-variation-settings: normal; font-variant-position: normal; font-variant-emoji: normal; font-stretch: normal; font-size: 9px; line-height: normal; font-family: Menlo;&quot; class=&quot;s1&quot;&gt;&lt;/span&gt;关键点总结&lt;/b&gt;&lt;/font&gt;&lt;/li&gt;&lt;li style=&quot;margin: 0px; font-variant-numeric: normal; font-variant-east-asian: normal; font-variant-alternates: normal; font-size-adjust: none; font-kerning: auto; font-optical-sizing: auto; font-feature-settings: normal; font-variation-settings: normal; font-variant-position: normal; font-variant-emoji: normal; font-stretch: normal; font-size: 13px; line-height: normal;&quot; class=&quot;li1&quot;&gt;&lt;span style=&quot;font-variant-numeric: normal; font-variant-east-asian: normal; font-variant-alternates: normal; font-size-adjust: none; font-kerning: auto; font-optical-sizing: auto; font-feature-settings: normal; font-variation-settings: normal; font-variant-position: normal; font-variant-emoji: normal; font-stretch: normal; font-size: 9px; line-height: normal; font-family: Menlo;&quot; class=&quot;s1&quot;&gt;&lt;/span&gt;&lt;b&gt;顺序严格&lt;/b&gt;：配置合并 → 生命周期/事件/渲染初始化 →&amp;nbsp;beforeCreate&amp;nbsp;→ 注入 → 状态初始化 →&amp;nbsp;provide&amp;nbsp;→&amp;nbsp;created。&lt;/li&gt;&lt;li style=&quot;margin: 0px; font-variant-numeric: normal; font-variant-east-asian: normal; font-variant-alternates: normal; font-size-adjust: none; font-kerning: auto; font-optical-sizing: auto; font-feature-settings: normal; font-variation-settings: normal; font-variant-position: normal; font-variant-emoji: normal; font-stretch: normal; font-size: 13px; line-height: normal;&quot; class=&quot;li1&quot;&gt;&lt;span style=&quot;font-variant-numeric: normal; font-variant-east-asian: normal; font-variant-alternates: normal; font-size-adjust: none; font-kerning: auto; font-optical-sizing: auto; font-feature-settings: normal; font-variation-settings: normal; font-variant-position: normal; font-variant-emoji: normal; font-stretch: normal; font-size: 9px; line-height: normal; font-family: Menlo;&quot; class=&quot;s1&quot;&gt;&lt;/span&gt;&lt;b&gt;响应式起点&lt;/b&gt;：data&amp;nbsp;的响应式处理发生在&amp;nbsp;initData&amp;nbsp;阶段，依赖&amp;nbsp;Object.defineProperty。&lt;/li&gt;&lt;li style=&quot;margin: 0px; font-variant-numeric: normal; font-variant-east-asian: normal; font-variant-alternates: normal; font-size-adjust: none; font-kerning: auto; font-optical-sizing: auto; font-feature-settings: normal; font-variation-settings: normal; font-variant-position: normal; font-variant-emoji: normal; font-stretch: normal; font-size: 13px; line-height: normal;&quot; class=&quot;li1&quot;&gt;&lt;span style=&quot;font-variant-numeric: normal; font-variant-east-asian: normal; font-variant-alternates: normal; font-size-adjust: none; font-kerning: auto; font-optical-sizing: auto; font-feature-settings: normal; font-variation-settings: normal; font-variant-position: normal; font-variant-emoji: normal; font-stretch: normal; font-size: 9px; line-height: normal; font-family: Menlo;&quot; class=&quot;s1&quot;&gt;&lt;/span&gt;&lt;b&gt;生命周期钩子时机&lt;/b&gt;：beforeCreate&amp;nbsp;无法访问数据，created&amp;nbsp;可访问数据但 DOM 未生成。&lt;/li&gt;&lt;li style=&quot;margin: 0px; font-variant-numeric: normal; font-variant-east-asian: normal; font-variant-alternates: normal; font-size-adjust: none; font-kerning: auto; font-optical-sizing: auto; font-feature-settings: normal; font-variation-settings: normal; font-variant-position: normal; font-variant-emoji: normal; font-stretch: normal; font-size: 13px; line-height: normal; font-family: &amp;quot;PingFang SC&amp;quot;;&quot; class=&quot;li2&quot;&gt;&lt;span style=&quot;font-variant-numeric: normal; font-variant-east-asian: normal; font-variant-alternates: normal; font-size-adjust: none; font-kerning: auto; font-optical-sizing: auto; font-feature-settings: normal; font-variation-settings: normal; font-variant-position: normal; font-variant-emoji: normal; font-stretch: normal; font-size: 9px; line-height: normal; font-family: Menlo;&quot; class=&quot;s1&quot;&gt;&lt;/span&gt;通过&lt;span style=&quot;font-variant-numeric: normal; font-variant-east-asian: normal; font-variant-alternates: normal; font-size-adjust: none; font-kerning: auto; font-optical-sizing: auto; font-feature-settings: normal; font-variation-settings: normal; font-variant-position: normal; font-variant-emoji: normal; font-stretch: normal; line-height: normal; font-family: &amp;quot;Helvetica Neue&amp;quot;;&quot; class=&quot;s2&quot;&gt;&amp;nbsp;_init&amp;nbsp;&lt;/span&gt;的流程，&lt;span style=&quot;font-variant-numeric: normal; font-variant-east-asian: normal; font-variant-alternates: normal; font-size-adjust: none; font-kerning: auto; font-optical-sizing: auto; font-feature-settings: normal; font-variation-settings: normal; font-variant-position: normal; font-variant-emoji: normal; font-stretch: normal; line-height: normal; font-family: &amp;quot;Helvetica Neue&amp;quot;;&quot; class=&quot;s2&quot;&gt;Vue &lt;/span&gt;实例完成了配置整合、数据响应式、依赖注入等关键初始化步骤，为后续渲染和更新奠定了基础。&lt;/li&gt;&lt;/ul&gt;&lt;/li&gt;&lt;/ul&gt;" style="shape=note;whiteSpace=wrap;html=1;backgroundOutline=1;darkOpacity=0.05;align=left;spacing=-2;fontSize=11;spacingTop=-2;spacingBottom=-1;spacingLeft=-19;" vertex="1" parent="1">
          <mxGeometry x="58" y="1070" width="840" height="180" as="geometry" />
        </mxCell>
      </root>
    </mxGraphModel>
  </diagram>
</mxfile>
